<?xml version="1.0" encoding="UTF-8" standalone="no"?>
<svg width="51px" height="52px" viewBox="0 0 51 52" version="1.1" xmlns="http://www.w3.org/2000/svg" xmlns:xlink="http://www.w3.org/1999/xlink" xmlns:sketch="http://www.bohemiancoding.com/sketch/ns">
    <!-- Generator: Sketch 3.1.1 (8761) - http://www.bohemiancoding.com/sketch -->
    <title>logo</title>
    <desc>Created with Sketch.</desc>
    <defs>
        <rect id="path-1" x="0" y="0" width="50.442" height="51.213"></rect>
        <rect id="path-3" x="0" y="0" width="50.442" height="51.213"></rect>
        <rect id="path-5" x="0" y="0" width="50.442" height="51.213"></rect>
        <rect id="path-7" x="0" y="0" width="50.442" height="51.213"></rect>
        <rect id="path-9" x="0" y="0" width="50.442" height="51.213"></rect>
        <rect id="path-11" x="0" y="0" width="50.442" height="51.213"></rect>
        <rect id="path-13" x="0" y="0" width="50.442" height="51.213"></rect>
        <rect id="path-15" x="0" y="0" width="50.442" height="51.213"></rect>
        <rect id="path-17" x="0" y="0" width="50.442" height="51.213"></rect>
        <rect id="path-19" x="0" y="0" width="50.442" height="51.213"></rect>
        <rect id="path-21" x="0" y="0" width="50.442" height="51.213"></rect>
        <rect id="path-23" x="0" y="0" width="50.442" height="51.213"></rect>
        <rect id="path-25" x="0" y="0" width="50.442" height="51.213"></rect>
        <rect id="path-27" x="0" y="0" width="50.442" height="51.213"></rect>
        <rect id="path-29" x="0" y="0" width="50.442" height="51.213"></rect>
        <rect id="path-31" x="0" y="0" width="50.442" height="51.213"></rect>
        <rect id="path-33" x="0" y="0" width="50.442" height="51.213"></rect>
        <rect id="path-35" x="0" y="0" width="50.442" height="51.213"></rect>
        <rect id="path-37" x="0" y="0" width="50.442" height="51.213"></rect>
        <rect id="path-39" x="0" y="0" width="50.442" height="51.213"></rect>
        <rect id="path-41" x="0" y="0" width="50.442" height="51.213"></rect>
        <rect id="path-43" x="0" y="0" width="50.442" height="51.213"></rect>
        <rect id="path-45" x="0" y="0" width="50.442" height="51.213"></rect>
        <rect id="path-47" x="0" y="0" width="50.442" height="51.213"></rect>
        <rect id="path-49" x="0" y="0" width="50.442" height="51.213"></rect>
        <rect id="path-51" x="0" y="0" width="50.442" height="51.213"></rect>
        <rect id="path-53" x="0" y="0" width="50.442" height="51.213"></rect>
        <rect id="path-55" x="0" y="0" width="50.442" height="51.213"></rect>
        <rect id="path-57" x="0" y="0" width="50.442" height="51.213"></rect>
        <rect id="path-59" x="0" y="0" width="50.442" height="51.213"></rect>
        <rect id="path-61" x="0" y="0" width="50.442" height="51.213"></rect>
        <rect id="path-63" x="0" y="0" width="50.442" height="51.213"></rect>
        <rect id="path-65" x="0" y="0" width="50.442" height="51.213"></rect>
        <rect id="path-67" x="0" y="0" width="50.442" height="51.213"></rect>
        <rect id="path-69" x="0" y="0" width="50.442" height="51.213"></rect>
        <rect id="path-71" x="0" y="0" width="50.442" height="51.213"></rect>
        <rect id="path-73" x="0" y="0" width="50.442" height="51.213"></rect>
        <rect id="path-75" x="0" y="0" width="50.442" height="51.213"></rect>
        <rect id="path-77" x="0" y="0" width="50.442" height="51.213"></rect>
        <rect id="path-79" x="0" y="0" width="50.442" height="51.213"></rect>
        <rect id="path-81" x="0" y="0" width="50.442" height="51.213"></rect>
        <rect id="path-83" x="0" y="0" width="50.442" height="51.213"></rect>
        <rect id="path-85" x="0" y="0" width="50.442" height="51.213"></rect>
        <rect id="path-87" x="0" y="0" width="50.442" height="51.213"></rect>
        <rect id="path-89" x="0" y="0" width="50.442" height="51.213"></rect>
        <rect id="path-91" x="0" y="0" width="50.442" height="51.213"></rect>
        <rect id="path-93" x="0" y="0" width="50.442" height="51.213"></rect>
        <rect id="path-95" x="0" y="0" width="50.442" height="51.213"></rect>
        <rect id="path-97" x="0" y="0" width="50.442" height="51.213"></rect>
        <rect id="path-99" x="0" y="0" width="50.442" height="51.213"></rect>
        <rect id="path-101" x="0" y="0" width="50.442" height="51.213"></rect>
        <rect id="path-103" x="0" y="0" width="50.442" height="51.213"></rect>
        <rect id="path-105" x="0" y="0" width="50.442" height="51.213"></rect>
    </defs>
    <g id="Page-1" stroke="none" stroke-width="1" fill="none" fill-rule="evenodd" sketch:type="MSPage">
        <g id="logo" sketch:type="MSLayerGroup">
            <g id="Group">
                <g id="Clipped">
                    <mask id="mask-2" sketch:name="SVGID_1_" fill="white">
                        <use xlink:href="#path-1"></use>
                    </mask>
                    <g id="SVGID_1_"></g>
                    <path d="M25.22,11.434 C25.22,11.869 23.524,12.379 23.524,13.538 C23.524,14.697 25.22,15.207 25.22,15.642 C25.22,15.207 26.916,14.697 26.916,13.538 C26.916,12.379 25.22,11.869 25.22,11.434 L25.22,11.434 Z" id="Shape" fill="#2D2D2D" sketch:type="MSShapeGroup" mask="url(#mask-2)"></path>
                </g>
                <g id="Clipped">
                    <mask id="mask-4" sketch:name="SVGID_1_" fill="white">
                        <use xlink:href="#path-3"></use>
                    </mask>
                    <g id="SVGID_1_"></g>
                    <path d="M20.373,12.288 C20.522,12.697 19.102,13.756 19.498,14.845 C19.895,15.934 21.663,15.833 21.812,16.242 C21.663,15.833 23.083,14.774 22.686,13.685 C22.29,12.596 20.522,12.697 20.373,12.288" id="Shape" fill="#2D2D2D" sketch:type="MSShapeGroup" mask="url(#mask-4)"></path>
                </g>
                <g id="Clipped">
                    <mask id="mask-6" sketch:name="SVGID_1_" fill="white">
                        <use xlink:href="#path-5"></use>
                    </mask>
                    <g id="SVGID_1_"></g>
                    <path d="M16.111,14.748 C16.391,15.081 15.419,16.562 16.164,17.45 C16.908,18.338 18.536,17.639 18.815,17.972 C18.536,17.638 19.507,16.158 18.763,15.27 C18.018,14.382 16.391,15.081 16.111,14.748" id="Shape" fill="#2D2D2D" sketch:type="MSShapeGroup" mask="url(#mask-6)"></path>
                </g>
                <g id="Clipped">
                    <mask id="mask-8" sketch:name="SVGID_1_" fill="white">
                        <use xlink:href="#path-7"></use>
                    </mask>
                    <g id="SVGID_1_"></g>
                    <path d="M12.947,18.518 C13.324,18.736 12.917,20.459 13.92,21.039 C14.924,21.619 16.214,20.405 16.591,20.623 C16.214,20.405 16.621,18.681 15.617,18.102 C14.614,17.521 13.324,18.735 12.947,18.518" id="Shape" fill="#2D2D2D" sketch:type="MSShapeGroup" mask="url(#mask-8)"></path>
                </g>
                <g id="Clipped">
                    <mask id="mask-10" sketch:name="SVGID_1_" fill="white">
                        <use xlink:href="#path-9"></use>
                    </mask>
                    <g id="SVGID_1_"></g>
                    <path d="M11.263,23.142 C11.691,23.218 11.899,24.977 13.04,25.178 C14.181,25.38 14.978,23.798 15.407,23.874 C14.978,23.798 14.771,22.039 13.63,21.838 C12.488,21.636 11.69,23.218 11.263,23.142" id="Shape" fill="#2D2D2D" sketch:type="MSShapeGroup" mask="url(#mask-10)"></path>
                </g>
                <g id="Clipped">
                    <mask id="mask-12" sketch:name="SVGID_1_" fill="white">
                        <use xlink:href="#path-11"></use>
                    </mask>
                    <g id="SVGID_1_"></g>
                    <path d="M11.261,28.062 C11.69,27.988 12.486,29.57 13.627,29.369 C14.768,29.168 14.977,27.409 15.405,27.334 C14.977,27.409 14.18,25.827 13.039,26.028 C11.898,26.229 11.69,27.988 11.261,28.062" id="Shape" fill="#2D2D2D" sketch:type="MSShapeGroup" mask="url(#mask-12)"></path>
                </g>
                <g id="Clipped">
                    <mask id="mask-14" sketch:name="SVGID_1_" fill="white">
                        <use xlink:href="#path-13"></use>
                    </mask>
                    <g id="SVGID_1_"></g>
                    <path d="M12.942,32.688 C13.319,32.47 14.608,33.684 15.612,33.106 C16.616,32.527 16.21,30.802 16.587,30.585 C16.21,30.802 14.921,29.587 13.917,30.166 C12.913,30.747 13.319,32.471 12.942,32.688" id="Shape" fill="#2D2D2D" sketch:type="MSShapeGroup" mask="url(#mask-14)"></path>
                </g>
                <g id="Clipped">
                    <mask id="mask-16" sketch:name="SVGID_1_" fill="white">
                        <use xlink:href="#path-15"></use>
                    </mask>
                    <g id="SVGID_1_"></g>
                    <path d="M16.104,36.459 C16.384,36.126 18.011,36.826 18.756,35.939 C19.501,35.051 18.531,33.57 18.81,33.237 C18.53,33.57 16.904,32.87 16.158,33.758 C15.413,34.645 16.384,36.126 16.104,36.459" id="Shape" fill="#2D2D2D" sketch:type="MSShapeGroup" mask="url(#mask-16)"></path>
                </g>
                <g id="Clipped">
                    <mask id="mask-18" sketch:name="SVGID_1_" fill="white">
                        <use xlink:href="#path-17"></use>
                    </mask>
                    <g id="SVGID_1_"></g>
                    <path d="M20.364,38.922 C20.513,38.514 22.281,38.615 22.678,37.526 C23.075,36.438 21.656,35.377 21.805,34.969 C21.656,35.376 19.888,35.276 19.491,36.364 C19.095,37.453 20.514,38.514 20.364,38.922" id="Shape" fill="#2D2D2D" sketch:type="MSShapeGroup" mask="url(#mask-18)"></path>
                </g>
                <g id="Clipped">
                    <mask id="mask-20" sketch:name="SVGID_1_" fill="white">
                        <use xlink:href="#path-19"></use>
                    </mask>
                    <g id="SVGID_1_"></g>
                    <path d="M25.211,39.78 C25.211,39.344 26.907,38.836 26.908,37.676 C26.908,36.517 25.213,36.006 25.214,35.572 C25.213,36.007 23.517,36.515 23.516,37.675 C23.515,38.835 25.211,39.345 25.211,39.78" id="Shape" fill="#2D2D2D" sketch:type="MSShapeGroup" mask="url(#mask-20)"></path>
                </g>
                <g id="Clipped">
                    <mask id="mask-22" sketch:name="SVGID_1_" fill="white">
                        <use xlink:href="#path-21"></use>
                    </mask>
                    <g id="SVGID_1_"></g>
                    <path d="M30.058,38.929 C29.909,38.52 31.33,37.462 30.934,36.372 C30.538,35.282 28.77,35.383 28.622,34.974 C28.769,35.383 27.35,36.441 27.744,37.53 C28.141,38.619 29.908,38.52 30.058,38.929" id="Shape" fill="#2D2D2D" sketch:type="MSShapeGroup" mask="url(#mask-22)"></path>
                </g>
                <g id="Clipped">
                    <mask id="mask-24" sketch:name="SVGID_1_" fill="white">
                        <use xlink:href="#path-23"></use>
                    </mask>
                    <g id="SVGID_1_"></g>
                    <path d="M34.321,36.471 C34.042,36.137 35.014,34.658 34.27,33.77 C33.526,32.881 31.898,33.58 31.619,33.246 C31.898,33.58 30.926,35.06 31.67,35.949 C32.414,36.836 34.041,36.138 34.321,36.471" id="Shape" fill="#2D2D2D" sketch:type="MSShapeGroup" mask="url(#mask-24)"></path>
                </g>
                <g id="Clipped">
                    <mask id="mask-26" sketch:name="SVGID_1_" fill="white">
                        <use xlink:href="#path-25"></use>
                    </mask>
                    <g id="SVGID_1_"></g>
                    <path d="M37.488,32.704 C37.11,32.485 37.518,30.763 36.515,30.182 C35.512,29.602 34.221,30.815 33.845,30.597 C34.221,30.815 33.813,32.538 34.816,33.119 C35.82,33.699 37.11,32.485 37.488,32.704" id="Shape" fill="#2D2D2D" sketch:type="MSShapeGroup" mask="url(#mask-26)"></path>
                </g>
                <g id="Clipped">
                    <mask id="mask-28" sketch:name="SVGID_1_" fill="white">
                        <use xlink:href="#path-27"></use>
                    </mask>
                    <g id="SVGID_1_"></g>
                    <path d="M39.175,28.081 C38.747,28.005 38.541,26.246 37.4,26.044 C36.258,25.841 35.461,27.422 35.033,27.347 C35.461,27.422 35.667,29.182 36.807,29.384 C37.948,29.586 38.746,28.005 39.175,28.081" id="Shape" fill="#2D2D2D" sketch:type="MSShapeGroup" mask="url(#mask-28)"></path>
                </g>
                <g id="Clipped">
                    <mask id="mask-30" sketch:name="SVGID_1_" fill="white">
                        <use xlink:href="#path-29"></use>
                    </mask>
                    <g id="SVGID_1_"></g>
                    <path d="M39.18,23.16 C38.751,23.235 37.956,21.653 36.815,21.853 C35.674,22.053 35.464,23.812 35.036,23.887 C35.465,23.811 36.26,25.394 37.402,25.194 C38.542,24.994 38.751,23.234 39.18,23.16" id="Shape" fill="#2D2D2D" sketch:type="MSShapeGroup" mask="url(#mask-30)"></path>
                </g>
                <g id="Clipped">
                    <mask id="mask-32" sketch:name="SVGID_1_" fill="white">
                        <use xlink:href="#path-31"></use>
                    </mask>
                    <g id="SVGID_1_"></g>
                    <path d="M37.502,18.533 C37.124,18.75 35.837,17.535 34.831,18.113 C33.827,18.692 34.232,20.416 33.855,20.633 C34.232,20.416 35.52,21.631 36.524,21.053 C37.529,20.475 37.124,18.75 37.502,18.533" id="Shape" fill="#2D2D2D" sketch:type="MSShapeGroup" mask="url(#mask-32)"></path>
                </g>
                <g id="Clipped">
                    <mask id="mask-34" sketch:name="SVGID_1_" fill="white">
                        <use xlink:href="#path-33"></use>
                    </mask>
                    <g id="SVGID_1_"></g>
                    <path d="M34.343,14.76 C34.063,15.093 32.437,14.392 31.691,15.278 C30.945,16.165 31.915,17.647 31.635,17.98 C31.914,17.647 33.54,18.349 34.286,17.462 C35.032,16.575 34.062,15.093 34.343,14.76" id="Shape" fill="#2D2D2D" sketch:type="MSShapeGroup" mask="url(#mask-34)"></path>
                </g>
                <g id="Clipped">
                    <mask id="mask-36" sketch:name="SVGID_1_" fill="white">
                        <use xlink:href="#path-35"></use>
                    </mask>
                    <g id="SVGID_1_"></g>
                    <path d="M30.083,12.294 C29.935,12.703 28.166,12.6 27.769,13.688 C27.371,14.777 28.789,15.838 28.64,16.246 C28.788,15.838 30.557,15.941 30.954,14.852 C31.353,13.764 29.935,12.703 30.083,12.294" id="Shape" fill="#2D2D2D" sketch:type="MSShapeGroup" mask="url(#mask-36)"></path>
                </g>
                <g id="Clipped">
                    <mask id="mask-38" sketch:name="SVGID_1_" fill="white">
                        <use xlink:href="#path-37"></use>
                    </mask>
                    <g id="SVGID_1_"></g>
                    <path d="M28.56,6.671 C28.465,7.203 26.28,7.461 26.03,8.88 C25.78,10.298 27.746,11.288 27.652,11.82 C27.746,11.288 29.93,11.03 30.181,9.612 C30.431,8.194 28.465,7.203 28.56,6.671" id="Shape" fill="#2D2D2D" sketch:type="MSShapeGroup" mask="url(#mask-38)"></path>
                </g>
                <g id="Clipped">
                    <mask id="mask-40" sketch:name="SVGID_1_" fill="white">
                        <use xlink:href="#path-39"></use>
                    </mask>
                    <g id="SVGID_1_"></g>
                    <path d="M34.834,8.955 C34.564,9.423 32.422,8.918 31.701,10.165 C30.981,11.412 32.49,13.015 32.219,13.483 C32.49,13.015 34.632,13.52 35.353,12.273 C36.072,11.026 34.564,9.423 34.834,8.955" id="Shape" fill="#2D2D2D" sketch:type="MSShapeGroup" mask="url(#mask-40)"></path>
                </g>
                <g id="Clipped">
                    <mask id="mask-42" sketch:name="SVGID_1_" fill="white">
                        <use xlink:href="#path-41"></use>
                    </mask>
                    <g id="SVGID_1_"></g>
                    <path d="M39.949,13.248 C39.536,13.595 37.695,12.388 36.593,13.314 C35.489,14.239 36.359,16.261 35.944,16.609 C36.359,16.261 38.199,17.469 39.302,16.543 C40.404,15.617 39.536,13.595 39.949,13.248" id="Shape" fill="#2D2D2D" sketch:type="MSShapeGroup" mask="url(#mask-42)"></path>
                </g>
                <g id="Clipped">
                    <mask id="mask-44" sketch:name="SVGID_1_" fill="white">
                        <use xlink:href="#path-43"></use>
                    </mask>
                    <g id="SVGID_1_"></g>
                    <path d="M43.288,19.031 C42.78,19.216 41.465,17.452 40.111,17.944 C38.757,18.437 38.883,20.634 38.376,20.819 C38.884,20.634 40.199,22.398 41.553,21.906 C42.905,21.413 42.78,19.216 43.288,19.031" id="Shape" fill="#2D2D2D" sketch:type="MSShapeGroup" mask="url(#mask-44)"></path>
                </g>
                <g id="Clipped">
                    <mask id="mask-46" sketch:name="SVGID_1_" fill="white">
                        <use xlink:href="#path-45"></use>
                    </mask>
                    <g id="SVGID_1_"></g>
                    <path d="M44.448,25.607 C43.907,25.607 43.273,23.499 41.834,23.499 C40.394,23.499 39.76,25.607 39.219,25.607 C39.76,25.607 40.394,27.714 41.834,27.714 C43.273,27.716 43.907,25.607 44.448,25.607" id="Shape" fill="#2D2D2D" sketch:type="MSShapeGroup" mask="url(#mask-46)"></path>
                </g>
                <g id="Clipped">
                    <mask id="mask-48" sketch:name="SVGID_1_" fill="white">
                        <use xlink:href="#path-47"></use>
                    </mask>
                    <g id="SVGID_1_"></g>
                    <path d="M43.288,32.185 C42.78,31.999 42.906,29.802 41.552,29.31 C40.199,28.818 38.883,30.581 38.375,30.396 C38.883,30.581 38.757,32.779 40.109,33.271 C41.464,33.763 42.78,31.999 43.288,32.185" id="Shape" fill="#2D2D2D" sketch:type="MSShapeGroup" mask="url(#mask-48)"></path>
                </g>
                <g id="Clipped">
                    <mask id="mask-50" sketch:name="SVGID_1_" fill="white">
                        <use xlink:href="#path-49"></use>
                    </mask>
                    <g id="SVGID_1_"></g>
                    <path d="M39.948,37.967 C39.534,37.619 40.403,35.599 39.301,34.672 C38.197,33.746 36.358,34.953 35.944,34.607 C36.358,34.954 35.489,36.976 36.592,37.902 C37.694,38.827 39.534,37.619 39.948,37.967" id="Shape" fill="#2D2D2D" sketch:type="MSShapeGroup" mask="url(#mask-50)"></path>
                </g>
                <g id="Clipped">
                    <mask id="mask-52" sketch:name="SVGID_1_" fill="white">
                        <use xlink:href="#path-51"></use>
                    </mask>
                    <g id="SVGID_1_"></g>
                    <path d="M34.833,42.26 C34.562,41.791 36.07,40.189 35.351,38.942 C34.632,37.695 32.489,38.2 32.219,37.732 C32.489,38.2 30.981,39.802 31.7,41.049 C32.421,42.297 34.562,41.791 34.833,42.26" id="Shape" fill="#2D2D2D" sketch:type="MSShapeGroup" mask="url(#mask-52)"></path>
                </g>
                <g id="Clipped">
                    <mask id="mask-54" sketch:name="SVGID_1_" fill="white">
                        <use xlink:href="#path-53"></use>
                    </mask>
                    <g id="SVGID_1_"></g>
                    <path d="M28.558,44.543 C28.463,44.011 30.43,43.021 30.18,41.603 C29.93,40.184 27.743,39.926 27.65,39.394 C27.744,39.926 25.779,40.916 26.029,42.334 C26.277,43.752 28.463,44.011 28.558,44.543" id="Shape" fill="#2D2D2D" sketch:type="MSShapeGroup" mask="url(#mask-54)"></path>
                </g>
                <g id="Clipped">
                    <mask id="mask-56" sketch:name="SVGID_1_" fill="white">
                        <use xlink:href="#path-55"></use>
                    </mask>
                    <g id="SVGID_1_"></g>
                    <path d="M21.879,44.543 C21.973,44.011 24.159,43.753 24.409,42.335 C24.659,40.916 22.693,39.926 22.787,39.394 C22.693,39.926 20.508,40.184 20.258,41.602 C20.007,43.02 21.973,44.011 21.879,44.543" id="Shape" fill="#2D2D2D" sketch:type="MSShapeGroup" mask="url(#mask-56)"></path>
                </g>
                <g id="Clipped">
                    <mask id="mask-58" sketch:name="SVGID_1_" fill="white">
                        <use xlink:href="#path-57"></use>
                    </mask>
                    <g id="SVGID_1_"></g>
                    <path d="M15.604,42.258 C15.874,41.79 18.016,42.295 18.737,41.048 C19.457,39.801 17.948,38.198 18.219,37.731 C17.948,38.199 15.806,37.694 15.086,38.941 C14.366,40.188 15.874,41.79 15.604,42.258" id="Shape" fill="#2D2D2D" sketch:type="MSShapeGroup" mask="url(#mask-58)"></path>
                </g>
                <g id="Clipped">
                    <mask id="mask-60" sketch:name="SVGID_1_" fill="white">
                        <use xlink:href="#path-59"></use>
                    </mask>
                    <g id="SVGID_1_"></g>
                    <path d="M10.489,37.965 C10.903,37.617 12.743,38.825 13.847,37.9 C14.95,36.975 14.081,34.953 14.495,34.606 C14.081,34.953 12.24,33.746 11.137,34.67 C10.034,35.596 10.903,37.617 10.489,37.965" id="Shape" fill="#2D2D2D" sketch:type="MSShapeGroup" mask="url(#mask-60)"></path>
                </g>
                <g id="Clipped">
                    <mask id="mask-62" sketch:name="SVGID_1_" fill="white">
                        <use xlink:href="#path-61"></use>
                    </mask>
                    <g id="SVGID_1_"></g>
                    <path d="M7.15,32.182 C7.658,31.997 8.974,33.761 10.327,33.269 C11.681,32.776 11.555,30.579 12.064,30.394 C11.555,30.579 10.239,28.815 8.886,29.308 C7.533,29.8 7.658,31.997 7.15,32.182" id="Shape" fill="#2D2D2D" sketch:type="MSShapeGroup" mask="url(#mask-62)"></path>
                </g>
                <g id="Clipped">
                    <mask id="mask-64" sketch:name="SVGID_1_" fill="white">
                        <use xlink:href="#path-63"></use>
                    </mask>
                    <g id="SVGID_1_"></g>
                    <path d="M5.991,25.605 C6.532,25.605 7.165,27.713 8.605,27.713 C10.045,27.713 10.679,25.605 11.22,25.606 C10.679,25.605 10.046,23.498 8.605,23.498 C7.167,23.497 6.532,25.605 5.991,25.605" id="Shape" fill="#2D2D2D" sketch:type="MSShapeGroup" mask="url(#mask-64)"></path>
                </g>
                <g id="Clipped">
                    <mask id="mask-66" sketch:name="SVGID_1_" fill="white">
                        <use xlink:href="#path-65"></use>
                    </mask>
                    <g id="SVGID_1_"></g>
                    <path d="M7.151,19.029 C7.659,19.214 7.533,21.411 8.886,21.904 C10.24,22.396 11.556,20.633 12.064,20.818 C11.556,20.633 11.682,18.436 10.329,17.943 C8.977,17.45 7.66,19.213 7.151,19.029" id="Shape" fill="#2D2D2D" sketch:type="MSShapeGroup" mask="url(#mask-66)"></path>
                </g>
                <g id="Clipped">
                    <mask id="mask-68" sketch:name="SVGID_1_" fill="white">
                        <use xlink:href="#path-67"></use>
                    </mask>
                    <g id="SVGID_1_"></g>
                    <path d="M10.491,13.246 C10.905,13.594 10.036,15.615 11.138,16.541 C12.242,17.467 14.082,16.26 14.496,16.607 C14.082,16.26 14.951,14.238 13.848,13.312 C12.745,12.387 10.905,13.594 10.491,13.246" id="Shape" fill="#2D2D2D" sketch:type="MSShapeGroup" mask="url(#mask-68)"></path>
                </g>
                <g id="Clipped">
                    <mask id="mask-70" sketch:name="SVGID_1_" fill="white">
                        <use xlink:href="#path-69"></use>
                    </mask>
                    <g id="SVGID_1_"></g>
                    <path d="M15.607,8.954 C15.877,9.422 14.369,11.025 15.088,12.272 C15.808,13.519 17.951,13.014 18.221,13.483 C17.951,13.014 19.459,11.412 18.739,10.165 C18.02,8.917 15.877,9.421 15.607,8.954" id="Shape" fill="#2D2D2D" sketch:type="MSShapeGroup" mask="url(#mask-70)"></path>
                </g>
                <g id="Clipped">
                    <mask id="mask-72" sketch:name="SVGID_1_" fill="white">
                        <use xlink:href="#path-71"></use>
                    </mask>
                    <g id="SVGID_1_"></g>
                    <path d="M21.883,6.67 C21.977,7.202 20.011,8.192 20.261,9.61 C20.511,11.029 22.697,11.287 22.79,11.819 C22.697,11.287 24.662,10.297 24.412,8.879 C24.163,7.461 21.977,7.202 21.883,6.67" id="Shape" fill="#2D2D2D" sketch:type="MSShapeGroup" mask="url(#mask-72)"></path>
                </g>
                <g id="Clipped">
                    <mask id="mask-74" sketch:name="SVGID_1_" fill="white">
                        <use xlink:href="#path-73"></use>
                    </mask>
                    <g id="SVGID_1_"></g>
                    <path d="M33.979,1.544 C33.709,2.283 30.515,2.1 29.798,4.068 C29.082,6.035 31.647,7.949 31.378,8.688 C31.648,7.949 34.841,8.132 35.558,6.164 C36.274,4.197 33.709,2.283 33.979,1.544 L33.979,1.544 Z" id="Shape" fill="#2D2D2D" sketch:type="MSShapeGroup" mask="url(#mask-74)"></path>
                </g>
                <g id="Clipped">
                    <mask id="mask-76" sketch:name="SVGID_1_" fill="white">
                        <use xlink:href="#path-75"></use>
                    </mask>
                    <g id="SVGID_1_"></g>
                    <path d="M25.223,0 C25.223,0.786 22.158,1.707 22.158,3.801 C22.158,5.895 25.222,6.816 25.222,7.602 C25.222,6.816 28.286,5.895 28.286,3.802 C28.286,1.708 25.223,0.786 25.223,0" id="Shape" fill="#2D2D2D" sketch:type="MSShapeGroup" mask="url(#mask-76)"></path>
                </g>
                <g id="Clipped">
                    <mask id="mask-78" sketch:name="SVGID_1_" fill="white">
                        <use xlink:href="#path-77"></use>
                    </mask>
                    <g id="SVGID_1_"></g>
                    <path d="M16.466,1.542 C16.735,2.281 14.17,4.194 14.885,6.162 C15.601,8.129 18.796,7.948 19.065,8.686 C18.796,7.948 21.361,6.034 20.645,4.067 C19.93,2.1 16.735,2.281 16.466,1.542" id="Shape" fill="#2D2D2D" sketch:type="MSShapeGroup" mask="url(#mask-78)"></path>
                </g>
                <g id="Clipped">
                    <mask id="mask-80" sketch:name="SVGID_1_" fill="white">
                        <use xlink:href="#path-79"></use>
                    </mask>
                    <g id="SVGID_1_"></g>
                    <path d="M8.765,5.986 C9.27,6.588 7.514,9.263 8.86,10.868 C10.205,12.472 13.145,11.209 13.65,11.811 C13.145,11.209 14.901,8.533 13.556,6.929 C12.21,5.325 9.27,6.588 8.765,5.986" id="Shape" fill="#2D2D2D" sketch:type="MSShapeGroup" mask="url(#mask-80)"></path>
                </g>
                <g id="Clipped">
                    <mask id="mask-82" sketch:name="SVGID_1_" fill="white">
                        <use xlink:href="#path-81"></use>
                    </mask>
                    <g id="SVGID_1_"></g>
                    <path d="M3.048,12.796 C3.729,13.189 2.993,16.304 4.806,17.351 C6.619,18.398 8.95,16.206 9.631,16.599 C8.95,16.206 9.685,13.092 7.872,12.044 C6.059,10.997 3.729,13.189 3.048,12.796" id="Shape" fill="#2D2D2D" sketch:type="MSShapeGroup" mask="url(#mask-82)"></path>
                </g>
                <g id="Clipped">
                    <mask id="mask-84" sketch:name="SVGID_1_" fill="white">
                        <use xlink:href="#path-83"></use>
                    </mask>
                    <g id="SVGID_1_"></g>
                    <path d="M0.004,21.15 C0.778,21.287 1.152,24.465 3.214,24.829 C5.276,25.194 6.716,22.336 7.49,22.473 C6.716,22.336 6.342,19.158 4.281,18.794 C2.219,18.429 0.778,21.287 0.004,21.15" id="Shape" fill="#2D2D2D" sketch:type="MSShapeGroup" mask="url(#mask-84)"></path>
                </g>
                <g id="Clipped">
                    <mask id="mask-86" sketch:name="SVGID_1_" fill="white">
                        <use xlink:href="#path-85"></use>
                    </mask>
                    <g id="SVGID_1_"></g>
                    <path d="M0,30.041 C0.774,29.905 2.212,32.764 4.274,32.401 C6.337,32.038 6.713,28.86 7.488,28.724 C6.713,28.86 5.275,26.001 3.213,26.364 C1.151,26.728 0.774,29.905 0,30.041" id="Shape" fill="#2D2D2D" sketch:type="MSShapeGroup" mask="url(#mask-86)"></path>
                </g>
                <g id="Clipped">
                    <mask id="mask-88" sketch:name="SVGID_1_" fill="white">
                        <use xlink:href="#path-87"></use>
                    </mask>
                    <g id="SVGID_1_"></g>
                    <path d="M3.037,38.397 C3.718,38.004 6.047,40.199 7.861,39.153 C9.674,38.107 8.942,34.992 9.623,34.599 C8.942,34.992 6.613,32.798 4.799,33.843 C2.985,34.89 3.718,38.005 3.037,38.397" id="Shape" fill="#2D2D2D" sketch:type="MSShapeGroup" mask="url(#mask-88)"></path>
                </g>
                <g id="Clipped" transform="translate(8.000000, 39.000000)" fill="#2D2D2D" sketch:type="MSShapeGroup">
                    <path d="M0.748,6.212 C1.254,5.61 4.193,6.876 5.54,5.274 C6.886,3.67 5.133,0.994 5.638,0.391 C5.132,0.994 2.194,-0.272 0.847,1.33 C-0.5,2.932 1.254,5.61 0.748,6.212" id="Shape"></path>
                </g>
                <g id="Clipped">
                    <mask id="mask-90" sketch:name="SVGID_1_" fill="white">
                        <use xlink:href="#path-89"></use>
                    </mask>
                    <g id="SVGID_1_"></g>
                    <path d="M16.445,49.662 C16.714,48.924 19.909,49.108 20.627,47.141 C21.344,45.174 18.781,43.258 19.05,42.52 C18.781,43.258 15.586,43.074 14.868,45.041 C14.151,47.009 16.714,48.924 16.445,49.662" id="Shape" fill="#2D2D2D" sketch:type="MSShapeGroup" mask="url(#mask-90)"></path>
                </g>
                <g id="Clipped">
                    <mask id="mask-92" sketch:name="SVGID_1_" fill="white">
                        <use xlink:href="#path-91"></use>
                    </mask>
                    <g id="SVGID_1_"></g>
                    <path d="M25.2,51.213 C25.201,50.427 28.266,49.508 28.267,47.414 C28.269,45.319 25.205,44.396 25.205,43.61 C25.204,44.396 22.14,45.315 22.137,47.409 C22.137,49.503 25.2,50.427 25.2,51.213" id="Shape" fill="#2D2D2D" sketch:type="MSShapeGroup" mask="url(#mask-92)"></path>
                </g>
                <g id="Clipped">
                    <mask id="mask-94" sketch:name="SVGID_1_" fill="white">
                        <use xlink:href="#path-93"></use>
                    </mask>
                    <g id="SVGID_1_"></g>
                    <path d="M33.958,49.676 C33.689,48.937 36.256,47.025 35.541,45.057 C34.827,43.089 31.632,43.269 31.364,42.53 C31.632,43.269 29.065,45.181 29.78,47.149 C30.495,49.117 33.689,48.937 33.958,49.676" id="Shape" fill="#2D2D2D" sketch:type="MSShapeGroup" mask="url(#mask-94)"></path>
                </g>
                <g id="Clipped">
                    <mask id="mask-96" sketch:name="SVGID_1_" fill="white">
                        <use xlink:href="#path-95"></use>
                    </mask>
                    <g id="SVGID_1_"></g>
                    <path d="M41.661,45.236 C41.156,44.633 42.914,41.96 41.57,40.354 C40.225,38.75 37.284,40.011 36.779,39.408 C37.284,40.012 35.527,42.685 36.871,44.291 C38.216,45.896 41.156,44.634 41.661,45.236" id="Shape" fill="#2D2D2D" sketch:type="MSShapeGroup" mask="url(#mask-96)"></path>
                </g>
                <g id="Clipped">
                    <mask id="mask-98" sketch:name="SVGID_1_" fill="white">
                        <use xlink:href="#path-97"></use>
                    </mask>
                    <g id="SVGID_1_"></g>
                    <path d="M47.383,38.431 C46.703,38.037 47.441,34.924 45.628,33.875 C43.815,32.826 41.483,35.017 40.803,34.624 C41.484,35.017 40.746,38.131 42.558,39.18 C44.37,40.228 46.702,38.037 47.383,38.431" id="Shape" fill="#2D2D2D" sketch:type="MSShapeGroup" mask="url(#mask-98)"></path>
                </g>
                <g id="Clipped">
                    <mask id="mask-100" sketch:name="SVGID_1_" fill="white">
                        <use xlink:href="#path-99"></use>
                    </mask>
                    <g id="SVGID_1_"></g>
                    <path d="M50.433,30.079 C49.659,29.941 49.287,26.764 47.226,26.397 C45.164,26.031 43.721,28.888 42.947,28.751 C43.722,28.889 44.093,32.066 46.155,32.433 C48.216,32.798 49.658,29.941 50.433,30.079" id="Shape" fill="#2D2D2D" sketch:type="MSShapeGroup" mask="url(#mask-100)"></path>
                </g>
                <g id="Clipped">
                    <mask id="mask-102" sketch:name="SVGID_1_" fill="white">
                        <use xlink:href="#path-101"></use>
                    </mask>
                    <g id="SVGID_1_"></g>
                    <path d="M50.442,21.188 C49.668,21.324 48.23,18.464 46.169,18.825 C44.107,19.187 43.728,22.364 42.954,22.5 C43.727,22.364 45.164,25.224 47.226,24.863 C49.289,24.5 49.667,21.324 50.442,21.188" id="Shape" fill="#2D2D2D" sketch:type="MSShapeGroup" mask="url(#mask-102)"></path>
                </g>
                <g id="Clipped">
                    <mask id="mask-104" sketch:name="SVGID_1_" fill="white">
                        <use xlink:href="#path-103"></use>
                    </mask>
                    <g id="SVGID_1_"></g>
                    <path d="M47.41,12.829 C46.729,13.221 44.401,11.025 42.588,12.07 C40.773,13.115 41.504,16.23 40.822,16.623 C41.504,16.23 43.83,18.426 45.645,17.382 C47.46,16.337 46.729,13.222 47.41,12.829" id="Shape" fill="#2D2D2D" sketch:type="MSShapeGroup" mask="url(#mask-104)"></path>
                </g>
                <g id="Clipped">
                    <mask id="mask-106" sketch:name="SVGID_1_" fill="white">
                        <use xlink:href="#path-105"></use>
                    </mask>
                    <g id="SVGID_1_"></g>
                    <path d="M41.703,6.011 C41.197,6.613 38.26,5.345 36.911,6.947 C35.563,8.549 37.315,11.227 36.809,11.829 C37.315,11.227 40.253,12.495 41.601,10.893 C42.949,9.29 41.197,6.613 41.703,6.011" id="Shape" fill="#2D2D2D" sketch:type="MSShapeGroup" mask="url(#mask-106)"></path>
                </g>
            </g>
        </g>
    </g>
</svg>